# xmcd CD database file
#
# Track frame offsets:
#	182
#	13407
#	31410
#	49532
#	69107
#	82282
#	100420
#	114595
#	132357
#	150382
#	166582
#	188487
#
# Disc length: 2674 seconds
#
# Revision: 0
# Processed by: cddbd v1.5.1PL0 Copyright (c) Steve Scherf et al.
# Submitted via: CDex 1.51
#
DISCID=910a700c
DTITLE=Various Artist - Unbelivable Country
DYEAR=1998
DGENRE=Country
TTITLE0=Sherrie Austin - Tenderly
TTITLE1=Diomond Rio - Youre Gone
TTITLE2=Mindy McCready - You'll Never Know
TTITLE3=Blackhawk - Postmarket Birmingham
TTITLE4=Pam Tillis - I Said A Prayer
TTITLE5=The Thompson Brothers Band - Back On The Farm
TTITLE6=Jill Morris - Be Young, Be Foolish, Be Happy
TTITLE7=Brooks and Dunn and Reba McEntire - If you See Him, If You See Her
TTITLE8=BR5-49 - 18 Wheels And Crowbar
TTITLE9=Martina McBride - A Broken Wing
TTITLE10=Jeff Black - That's Just About Right
TTITLE11=Ray Vega - That'Love
EXTD=YEAR: 1998
EXTT0=
EXTT1=
EXTT2=
EXTT3=
EXTT4=
EXTT5=
EXTT6=
EXTT7=
EXTT8=
EXTT9=
EXTT10=
EXTT11=
PLAYORDER=
